<svg t="1593231161117" class="icon" viewBox="0 0 1024 1024" version="1.1" xmlns="http://www.w3.org/2000/svg" p-id="2757" width="200" height="200"><path d="M511.485724 104.675556C286.182969 104.675556 103.537778 287.320747 103.537778 512.623502s182.645191 407.947947 407.947947 407.947947 407.947947-182.645191 407.947947-407.947947S736.789618 104.675556 511.485724 104.675556zM536.983324 754.9952c-8.853049 7.923484-18.860942 11.876124-30.036196 11.876124-11.175253 0-21.1968-3.95264-30.036196-11.876124-7.923484-7.909831-11.871573-17.916587-11.871573-30.031644 0-12.104818 3.948089-21.884018 11.871573-29.335324 7.914382-7.914382 17.922276-11.876124 30.036196-11.876124 12.572444 0 22.809031 3.961742 30.732516 11.876124 7.914382 7.923484 11.876124 17.701547 11.876124 29.335324C549.555769 737.077476 545.365333 747.085369 536.983324 754.9952zM637.561742 475.605902c-7.923484 9.320676-26.779876 27.237262-56.578276 53.783893-14.908302 12.572444-25.841209 25.382684-32.824889 38.412516-8.853049 14.908302-13.273316 31.899876-13.273316 50.989511l0 16.06656-55.877404 0 0-16.06656c0-23.280071 4.190436-43.533653 12.572444-60.768711 9.778062-20.954453 33.287964-47.95392 70.546773-81.021156 13.029831-13.029831 20.954453-21.41184 23.747698-25.144889 13.969636-17.692444 20.954453-36.081209 20.954453-55.181084 0-27.471644-7.923484-49.12128-23.747698-64.959147-15.837867-16.296391-38.656-24.448569-68.448711-24.448569-34.927502 0-60.768711 11.418738-77.531591 34.226631-15.371378 19.557262-23.051378 46.341689-23.051378 80.325973l-55.181084 0c0-49.349973 13.730702-88.469049 41.211449-117.345849 27.938133-30.732516 67.052658-46.098204 117.345849-46.098204 45.159538 0 81.021156 12.343751 107.563236 37.021013 26.074453 23.747698 39.113387 56.577138 39.113387 98.484907C664.103822 425.08288 655.255324 452.324693 637.561742 475.605902z" p-id="2758"></path></svg>